# xmcd
#
# Track frame offsets: 
#        150
#        20407
#        33864
#        52997
#        71122
#        87047
#        106417
#        124225
#        140079
#        155396
#        173802
#        186048
#        206907
#        216501
#        228701
#        242280
#        257109
#        272297
#        289065
#        305442
#        321667
#
# Disc length: 4525 seconds
#
# Revision: 0
# Processed by: cddbd v1.5.2PL0 Copyright (c) Steve Scherf et al.
# Submitted via: ExactAudioCopy v0.99pb4
#
DISCID=3711ab15
DTITLE=Various Artist - Oasis Country Vol. VIII #1
DYEAR=2008
DGENRE=Corporate Country
TTITLE0=Katie Clarke and The Green River Band - Goin' Away
TTITLE1=Amy Arton - Tickle My Fancy
TTITLE2=Keno James - You're My World
TTITLE3=Gary Ritchey - When She smiles
TTITLE4=Nick Joseph - Falling Out
TTITLE5=Andy Simmons - Country Cowboy
TTITLE6=Genuine Hick - Crimes of the Heart
TTITLE7=Outlaw Lynn - Hot Ridin' Mama (Motorcycle Version)
TTITLE8=Tracy Stefans - Blah, Blah, Blah
TTITLE9=Lacey D - Well Enough Alone
TTITLE10=Se7en South - Kentucky Diva
TTITLE11=Scott Dale - Tiny Diamonds
TTITLE12=Jeromy Goodnight - Misery Loves Company
TTITLE13=Dave Rudolf - Cajun Christmas
TTITLE14=Chris Bellamy - Fried Sushi
TTITLE15=Pistol River - Gentle Winds
TTITLE16=Shiny Johnson - Sweet Lil' Angel
TTITLE17=Kevin Kimes and Beaune Road - A Kiss Goodbye
TTITLE18=Matt Stivers - Sleeping In
TTITLE19=Randy Thompson - Don't You See
TTITLE20=The Wasteland Kings - Bleed
EXTD=
EXTT0=
EXTT1=
EXTT2=
EXTT3=
EXTT4=
EXTT5=
EXTT6=
EXTT7=
EXTT8=
EXTT9=
EXTT10=
EXTT11=
EXTT12=
EXTT13=
EXTT14=
EXTT15=
EXTT16=
EXTT17=
EXTT18=
EXTT19=
EXTT20=
PLAYORDER=
